<svg width="64" height="64" viewBox="0 0 64 64" fill="none" xmlns="http://www.w3.org/2000/svg">
<g clip-path="url(#clip0_2_3)">
<rect width="64" height="64" fill="#002B36"/>
<path d="M23.5137 28.1621C23.3145 28.5254 23.0508 29.0059 22.7227 29.6035C22.4062 30.2012 22.0371 30.8691 21.6152 31.6074C21.2051 32.3457 20.7539 33.1426 20.2617 33.998C19.7812 34.8418 19.2773 35.6914 18.75 36.5469C18.2344 37.4023 17.7012 38.2461 17.1504 39.0781C16.6113 39.8984 16.084 40.6602 15.5684 41.3633C16.834 41.2344 18.0527 40.9121 19.2246 40.3965C20.3965 39.8809 21.4922 39.2422 22.5117 38.4805C23.543 37.707 24.4805 36.8457 25.3242 35.8965C26.1797 34.9355 26.9062 33.9453 27.5039 32.9258C28.1133 31.8945 28.582 30.8633 28.9102 29.832C29.25 28.8008 29.4199 27.8281 29.4199 26.9141C29.4199 26.1406 29.3203 25.4258 29.1211 24.7695C28.9336 24.1133 28.6406 23.5449 28.2422 23.0645C27.8555 22.584 27.3574 22.209 26.748 21.9395C26.1387 21.6699 25.4238 21.5352 24.6035 21.5352C23.8418 21.5352 23.0742 21.6113 22.3008 21.7637C21.5391 21.9043 20.8066 22.0977 20.1035 22.3438C19.4004 22.5898 18.75 22.8828 18.1523 23.2227C17.5664 23.5508 17.0625 23.9082 16.6406 24.2949C16.1719 24.8105 15.7559 25.3262 15.3926 25.8418C15.041 26.3574 14.6895 26.8203 14.3379 27.2305C13.998 27.6406 13.6289 27.9746 13.2305 28.2324C12.832 28.4902 12.3633 28.6191 11.8242 28.6191C10.8164 28.6191 10.3125 28.1738 10.3125 27.2832C10.3125 26.7207 10.4941 26.1172 10.8574 25.4727C11.2207 24.8164 11.7246 24.1719 12.3691 23.5391C13.0254 22.8945 13.7988 22.2793 14.6895 21.6934C15.5918 21.0957 16.582 20.5742 17.6602 20.1289C18.7383 19.6719 19.8867 19.3086 21.1055 19.0391C22.3242 18.7695 23.5781 18.6348 24.8672 18.6348C26.3672 18.6348 27.6738 18.8574 28.7871 19.3027C29.9004 19.748 30.8203 20.3633 31.5469 21.1484C32.2852 21.9219 32.8301 22.8359 33.1816 23.8906C33.5449 24.9453 33.7266 26.082 33.7266 27.3008C33.7266 28.5195 33.5156 29.7969 33.0938 31.1328C32.6836 32.4688 32.0742 33.7812 31.2656 35.0703C30.4688 36.3594 29.4785 37.584 28.2949 38.7441C27.123 39.9043 25.7695 40.9238 24.2344 41.8027C22.7109 42.6816 21.0176 43.3789 19.1543 43.8945C17.3027 44.4102 15.2988 44.668 13.1426 44.668C12.6738 44.668 12.3047 44.5156 12.0352 44.2109C11.7656 43.918 11.6309 43.5547 11.6309 43.1211C11.6309 42.7812 11.6895 42.4531 11.8066 42.1367C11.9238 41.8203 12.0762 41.5273 12.2637 41.2578L19.4883 26.8965C19.8281 26.3691 20.1621 25.9473 20.4902 25.6309C20.8301 25.3145 21.1406 25.0684 21.4219 24.8926C21.7148 24.7168 21.9727 24.6055 22.1953 24.5586C22.418 24.5 22.5879 24.4707 22.7051 24.4707C23.2324 24.4707 23.6074 24.623 23.8301 24.9277C24.0527 25.2324 24.1641 25.5957 24.1641 26.0176C24.1641 26.3574 24.1055 26.7148 23.9883 27.0898C23.8711 27.4648 23.7129 27.8223 23.5137 28.1621ZM41.1797 34.209C41.5195 34.209 41.7656 34.3496 41.918 34.6309C42.082 34.9004 42.1641 35.2109 42.1641 35.5625C42.1641 35.7383 42.1465 35.8906 42.1113 36.0195C42.0762 36.1484 42.0059 36.2715 41.9004 36.3887C41.7949 36.4941 41.6543 36.5996 41.4785 36.7051C41.3027 36.7988 41.0742 36.9043 40.793 37.0215C40.1367 37.3027 39.6211 37.6426 39.2461 38.041C38.8711 38.4277 38.6836 38.8145 38.6836 39.2012C38.6836 39.4473 38.7656 39.6816 38.9297 39.9043C39.0938 40.127 39.3516 40.3262 39.7031 40.502C40.0547 40.666 40.5059 40.8008 41.0566 40.9062C41.6191 41 42.293 41.0469 43.0781 41.0469C43.8867 41.0469 44.6543 40.9531 45.3809 40.7656C46.1074 40.5664 46.7402 40.291 47.2793 39.9395C47.8301 39.5879 48.2637 39.1719 48.5801 38.6914C48.9082 38.2109 49.0723 37.6895 49.0723 37.127C49.0723 36.7051 48.8965 36.2656 48.5449 35.8086C48.1934 35.3516 47.6367 34.877 46.875 34.3848C45.5273 33.5059 44.502 32.7969 43.7988 32.2578C43.1074 31.7188 42.6797 31.3789 42.5156 31.2383C41.6367 30.4648 40.9805 29.7207 40.5469 29.0059C40.1133 28.291 39.8965 27.5469 39.8965 26.7734C39.8965 26.0586 40.0664 25.3613 40.4062 24.6816C40.7578 24.002 41.2266 23.3633 41.8125 22.7656C42.3984 22.168 43.0723 21.6172 43.834 21.1133C44.6074 20.5977 45.4102 20.1582 46.2422 19.7949C47.0859 19.4316 47.9297 19.1504 48.7734 18.9512C49.6289 18.7402 50.4375 18.6348 51.1992 18.6348C51.7734 18.6348 52.3008 18.6992 52.7812 18.8281C53.2734 18.957 53.7012 19.1621 54.0645 19.4434C54.4277 19.7129 54.709 20.0645 54.9082 20.498C55.1191 20.9316 55.2246 21.4531 55.2246 22.0625C55.2246 22.9414 54.9727 23.7793 54.4688 24.5762C53.9648 25.373 53.1973 26.1172 52.166 26.8086C51.709 27.125 51.2871 27.2832 50.9004 27.2832C50.502 27.2832 50.1855 27.1426 49.9512 26.8613C49.7168 26.5684 49.5996 26.2285 49.5996 25.8418C49.5996 25.5137 49.6934 25.1855 49.8809 24.8574C50.0801 24.5293 50.3965 24.248 50.8301 24.0137C51.1699 23.8379 51.4688 23.6035 51.7266 23.3105C51.9961 23.0059 52.1309 22.7129 52.1309 22.4316C52.1309 22.1621 52.0371 21.9863 51.8496 21.9043C51.6738 21.8223 51.457 21.7812 51.1992 21.7812C50.707 21.7812 50.168 21.8457 49.582 21.9746C49.0078 22.0918 48.4277 22.2559 47.8418 22.4668C47.2676 22.6777 46.7051 22.9297 46.1543 23.2227C45.6152 23.5156 45.1348 23.832 44.7129 24.1719C44.3027 24.5117 43.9688 24.875 43.7109 25.2617C43.4648 25.6367 43.3418 26.0117 43.3418 26.3867C43.3418 26.6445 43.3945 26.8848 43.5 27.1074C43.6055 27.3301 43.7578 27.5527 43.957 27.7754C44.168 27.998 44.4199 28.2324 44.7129 28.4785C45.0059 28.7129 45.3457 28.9707 45.7324 29.252L49.8457 32.293C50.373 32.6797 50.8418 33.0605 51.252 33.4355C51.6738 33.7988 52.0254 34.168 52.3066 34.543C52.5879 34.9062 52.8047 35.2754 52.957 35.6504C53.1094 36.0254 53.1855 36.4238 53.1855 36.8457C53.1855 37.7832 52.9395 38.7031 52.4473 39.6055C51.9668 40.4961 51.2754 41.293 50.373 41.9961C49.4824 42.6992 48.4043 43.2676 47.1387 43.7012C45.8848 44.1348 44.4902 44.3516 42.9551 44.3516C41.5254 44.3516 40.3066 44.2344 39.2988 44C38.3027 43.7773 37.4824 43.4727 36.8379 43.0859C36.1934 42.6875 35.7246 42.2363 35.4316 41.7324C35.1387 41.2168 34.9922 40.6777 34.9922 40.1152C34.9922 39.5293 35.1387 38.9375 35.4316 38.3398C35.7363 37.7305 36.1582 37.1562 36.6973 36.6172C37.248 36.0781 37.9043 35.5977 38.666 35.1758C39.4277 34.7539 40.2656 34.4316 41.1797 34.209Z" fill="#EEE8D5"/>
<path d="M23.5137 28.1621L22.651 27.6564L22.6437 27.6687L22.6369 27.6813L23.5137 28.1621ZM22.7227 29.6035L21.8461 29.1223L21.8424 29.1289L21.8389 29.1356L22.7227 29.6035ZM21.6152 31.6074L20.7469 31.1112L20.7411 31.1218L21.6152 31.6074ZM20.2617 33.998L19.3949 33.4993L19.3927 33.5032L20.2617 33.998ZM18.75 36.5469L17.8987 36.0221L17.8935 36.0307L18.75 36.5469ZM17.1504 39.0781L16.3165 38.5261L16.3147 38.5289L17.1504 39.0781ZM15.5684 41.3633L14.762 40.7719L13.4316 42.5861L15.6697 42.3581L15.5684 41.3633ZM22.5117 38.4805L23.1102 39.2816L23.1117 39.2805L22.5117 38.4805ZM25.3242 35.8965L24.5773 35.2316L24.5768 35.2321L25.3242 35.8965ZM27.5039 32.9258L26.643 32.417L26.6412 32.4201L27.5039 32.9258ZM28.9102 29.832L27.9603 29.519L27.9572 29.5288L28.9102 29.832ZM29.1211 24.7695L28.1596 25.0443L28.1618 25.0522L28.1642 25.06L29.1211 24.7695ZM28.2422 23.0645L27.4632 23.6915L27.4678 23.6972L27.4724 23.7028L28.2422 23.0645ZM22.3008 21.7637L22.4823 22.7471L22.494 22.7448L22.3008 21.7637ZM18.1523 23.2227L18.641 24.0952L18.6466 24.0919L18.1523 23.2227ZM16.6406 24.2949L15.9649 23.5578L15.9313 23.5885L15.9007 23.6222L16.6406 24.2949ZM15.3926 25.8418L14.5751 25.2658L14.5707 25.2721L14.5664 25.2785L15.3926 25.8418ZM14.3379 27.2305L13.5786 26.5797L13.5732 26.586L13.5679 26.5925L14.3379 27.2305ZM10.8574 25.4727L11.7286 25.9637L11.7323 25.957L10.8574 25.4727ZM12.3691 23.5391L13.0697 24.2526L13.0698 24.2525L12.3691 23.5391ZM14.6895 21.6934L15.2391 22.5288L15.2417 22.5271L14.6895 21.6934ZM17.6602 20.1289L18.0419 21.0532L18.0504 21.0496L17.6602 20.1289ZM31.5469 21.1484L30.8129 21.8276L30.8182 21.8333L30.8235 21.8389L31.5469 21.1484ZM33.1816 23.8906L32.2329 24.2069L32.2362 24.2163L33.1816 23.8906ZM33.0938 31.1328L32.1401 30.8317L32.1378 30.8393L33.0938 31.1328ZM31.2656 35.0703L30.4185 34.5389L30.415 34.5445L31.2656 35.0703ZM28.2949 38.7441L27.5949 38.03L27.5914 38.0335L28.2949 38.7441ZM24.2344 41.8027L23.7375 40.9349L23.7347 40.9365L24.2344 41.8027ZM19.1543 43.8945L18.8876 42.9308L18.886 42.9312L19.1543 43.8945ZM12.0352 44.2109L12.7842 43.5484L12.7777 43.5411L12.7711 43.5339L12.0352 44.2109ZM12.2637 41.2578L13.0846 41.8289L13.1251 41.7706L13.157 41.7072L12.2637 41.2578ZM19.4883 26.8965L18.6477 26.3548L18.6189 26.3995L18.595 26.4471L19.4883 26.8965ZM20.4902 25.6309L19.8088 24.899L19.8024 24.9049L19.7961 24.911L20.4902 25.6309ZM21.4219 24.8926L20.9074 24.0351L20.8996 24.0398L20.8919 24.0446L21.4219 24.8926ZM22.1953 24.5586L22.4013 25.5371L22.4257 25.532L22.4498 25.5257L22.1953 24.5586ZM22.6369 27.6813C22.4378 28.0444 22.1742 28.5247 21.8461 29.1223L23.5992 30.0848C23.9274 29.4871 24.1912 29.0064 24.3905 28.6429L22.6369 27.6813ZM21.8389 29.1356C21.5286 29.7217 21.1648 30.3801 20.747 31.1113L22.4835 32.1036C22.9094 31.3582 23.2839 30.6806 23.6064 30.0714L21.8389 29.1356ZM20.7411 31.1218C20.3337 31.855 19.885 32.6475 19.3949 33.4994L21.1285 34.4967C21.6228 33.6376 22.0764 32.8364 22.4894 32.0931L20.7411 31.1218ZM19.3927 33.5032C18.9182 34.3365 18.4202 35.1762 17.8987 36.0221L19.6013 37.0716C20.1345 36.2066 20.6443 35.3471 21.1307 34.4929L19.3927 33.5032ZM17.8935 36.0307C17.3852 36.8741 16.8595 37.7059 16.3165 38.5261L17.9842 39.6301C18.5428 38.7863 19.0836 37.9306 19.6065 37.0631L17.8935 36.0307ZM16.3147 38.5289C15.7839 39.3367 15.2663 40.0842 14.762 40.7719L16.3748 41.9546C16.9017 41.2361 17.4388 40.4602 17.9861 39.6273L16.3147 38.5289ZM15.6697 42.3581C17.04 42.2186 18.3604 41.8693 19.6273 41.3118L18.8219 39.4812C17.7451 39.955 16.628 40.2502 15.467 40.3684L15.6697 42.3581ZM19.6273 41.3118C20.8682 40.7658 22.0296 40.0889 23.1102 39.2816L21.9132 37.6794C20.9548 38.3954 19.9248 38.9959 18.8219 39.4812L19.6273 41.3118ZM23.1117 39.2805C24.1957 38.4675 25.1827 37.5608 26.0716 36.5608L24.5768 35.2321C23.7782 36.1306 22.8902 36.9466 21.9117 37.6805L23.1117 39.2805ZM26.0711 36.5614C26.9665 35.5556 27.7329 34.5125 28.3666 33.4315L26.6412 32.4201C26.0796 33.3781 25.3929 34.3155 24.5773 35.2316L26.0711 36.5614ZM28.3648 33.4345C29.0085 32.3452 29.5098 31.2454 29.8631 30.1352L27.9572 29.5288C27.6542 30.4812 27.2181 31.4438 26.643 32.4171L28.3648 33.4345ZM29.8599 30.145C30.227 29.0312 30.4199 27.9523 30.4199 26.9141H28.4199C28.4199 27.704 28.273 28.5703 27.9604 29.519L29.8599 30.145ZM30.4199 26.9141C30.4199 26.0546 30.3092 25.2406 30.078 24.479L28.1642 25.06C28.3315 25.6109 28.4199 26.2267 28.4199 26.9141H30.4199ZM30.0826 24.4948C29.8607 23.7179 29.5068 23.0228 29.0119 22.4261L27.4724 23.7028C27.7745 24.067 28.0065 24.5086 28.1596 25.0443L30.0826 24.4948ZM29.0212 22.4374C28.5265 21.8228 27.8959 21.3537 27.1526 21.0249L26.3435 22.854C26.8189 23.0643 27.1845 23.3452 27.4632 23.6915L29.0212 22.4374ZM27.1526 21.0249C26.3899 20.6876 25.5318 20.5352 24.6035 20.5352V22.5352C25.3159 22.5352 25.8874 22.6522 26.3435 22.854L27.1526 21.0249ZM24.6035 20.5352C23.7747 20.5352 22.9424 20.6181 22.1075 20.7825L22.494 22.7448C23.206 22.6046 23.9089 22.5352 24.6035 22.5352V20.5352ZM22.1192 20.7803C21.309 20.9299 20.5267 21.1362 19.7732 21.3999L20.4339 23.2876C21.0866 23.0592 21.7692 22.8787 22.4823 22.7471L22.1192 20.7803ZM19.7732 21.3999C19.0179 21.6642 18.3121 21.9814 17.658 22.3534L18.6466 24.0919C19.1879 23.7842 19.7829 23.5155 20.4339 23.2876L19.7732 21.3999ZM17.6637 22.3502C17.0217 22.7097 16.4525 23.1108 15.9649 23.5578L17.3163 25.0321C17.6725 24.7056 18.1111 24.3919 18.6409 24.0952L17.6637 22.3502ZM15.9007 23.6222C15.407 24.1653 14.9645 24.7131 14.5751 25.2658L16.2101 26.4178C16.5472 25.9392 16.9368 25.4557 17.3806 24.9676L15.9007 23.6222ZM14.5664 25.2785C14.2324 25.7683 13.903 26.2013 13.5786 26.5797L15.0971 27.8813C15.476 27.4393 15.8496 26.9466 16.2188 26.4051L14.5664 25.2785ZM13.5679 26.5925C13.2851 26.9337 12.9905 27.1966 12.6872 27.3929L13.7737 29.072C14.2673 28.7526 14.711 28.3475 15.1079 27.8685L13.5679 26.5925ZM12.6872 27.3929C12.4718 27.5322 12.1975 27.6191 11.8242 27.6191V29.6191C12.5291 29.6191 13.1922 29.4483 13.7737 29.072L12.6872 27.3929ZM11.8242 27.6191C11.6427 27.6191 11.5212 27.5987 11.4454 27.5764C11.4086 27.5656 11.3851 27.555 11.3715 27.5478C11.3582 27.5408 11.3531 27.5363 11.3526 27.5358C11.3523 27.5356 11.3527 27.536 11.3524 27.5356C11.352 27.5349 11.348 27.5291 11.3426 27.5148C11.3313 27.4846 11.3125 27.414 11.3125 27.2832H9.3125C9.3125 27.9169 9.49747 28.5654 10.0282 29.0345C10.5354 29.4827 11.1945 29.6191 11.8242 29.6191V27.6191ZM11.3125 27.2832C11.3125 26.9386 11.4239 26.5041 11.7286 25.9637L9.98627 24.9816C9.56434 25.7302 9.3125 26.5028 9.3125 27.2832H11.3125ZM11.7323 25.957C12.0405 25.4003 12.4805 24.8311 13.0697 24.2526L11.6686 22.8255C10.9687 23.5126 10.4009 24.2325 9.98253 24.9883L11.7323 25.957ZM13.0698 24.2525C13.6732 23.6599 14.3943 23.0845 15.2391 22.5288L14.1398 20.8579C13.2033 21.4741 12.3776 22.1291 11.6684 22.8256L13.0698 24.2525ZM15.2417 22.5271C16.0863 21.9677 17.0188 21.4758 18.0419 21.0532L17.2784 19.2046C16.1452 19.6727 15.0973 20.2237 14.1373 20.8596L15.2417 22.5271ZM18.0504 21.0496C19.0687 20.6179 20.1585 20.2727 21.3214 20.0155L20.8895 18.0627C19.615 18.3445 18.4078 18.7258 17.2699 19.2082L18.0504 21.0496ZM21.3214 20.0155C22.467 19.7621 23.6484 19.6348 24.8672 19.6348V17.6348C23.5079 17.6348 22.1815 17.7769 20.8895 18.0627L21.3214 20.0155ZM24.8672 19.6348C26.2707 19.6348 27.4461 19.8434 28.4157 20.2312L29.1585 18.3743C27.9015 17.8715 26.4636 17.6348 24.8672 17.6348V19.6348ZM28.4157 20.2312C29.4079 20.6281 30.1988 21.164 30.8129 21.8276L32.2808 20.4692C31.4418 19.5626 30.3929 18.868 29.1585 18.3743L28.4157 20.2312ZM30.8235 21.8389C31.456 22.5015 31.9261 23.2863 32.233 24.2069L34.1303 23.5744C33.7341 22.3856 33.1144 21.3423 32.2702 20.458L30.8235 21.8389ZM32.2362 24.2163C32.5602 25.1569 32.7266 26.1826 32.7266 27.3008H34.7266C34.7266 25.9814 34.5297 24.7337 34.1271 23.565L32.2362 24.2163ZM32.7266 27.3008C32.7266 28.4034 32.5358 29.5789 32.1402 30.8317L34.0473 31.4339C34.4955 30.0149 34.7266 28.6357 34.7266 27.3008H32.7266ZM32.1378 30.8393C31.7555 32.0845 31.1846 33.3175 30.4185 34.5389L32.1128 35.6017C32.9638 34.245 33.6117 32.853 34.0497 31.4263L32.1378 30.8393ZM30.415 34.5445C29.6643 35.7589 28.7262 36.9211 27.5949 38.03L28.9949 39.4583C30.2308 38.2469 31.2732 36.9599 32.1162 35.5961L30.415 34.5445ZM27.5914 38.0335C26.4856 39.1282 25.2027 40.0961 23.7375 40.9349L24.7312 42.6706C26.3364 41.7516 27.7605 40.6804 28.9985 39.4548L27.5914 38.0335ZM23.7347 40.9365C22.2913 41.7693 20.6774 42.4355 18.8876 42.9308L19.421 44.8583C21.3578 44.3223 23.1306 43.594 24.7341 42.6689L23.7347 40.9365ZM18.886 42.9312C17.1317 43.4197 15.219 43.668 13.1426 43.668V45.668C15.3786 45.668 17.4738 45.4006 19.4226 44.8579L18.886 42.9312ZM13.1426 43.668C12.9121 43.668 12.8341 43.6048 12.7842 43.5484L11.2862 44.8735C11.7753 45.4264 12.4356 45.668 13.1426 45.668V43.668ZM12.7711 43.5339C12.6872 43.4427 12.6309 43.3282 12.6309 43.1211H10.6309C10.6309 43.7812 10.8441 44.3933 11.2992 44.888L12.7711 43.5339ZM12.6309 43.1211C12.6309 42.8989 12.6687 42.6885 12.7444 42.484L10.8689 41.7894C10.7102 42.2178 10.6309 42.6636 10.6309 43.1211H12.6309ZM12.7444 42.484C12.8331 42.2446 12.9466 42.0272 13.0846 41.8289L11.4428 40.6867C11.2057 41.0275 11.0146 41.396 10.8689 41.7894L12.7444 42.484ZM13.157 41.7072L20.3816 27.3459L18.595 26.4471L11.3703 40.8084L13.157 41.7072ZM20.3289 27.4382C20.6413 26.9533 20.9281 26.5978 21.1844 26.3507L19.7961 24.911C19.3961 25.2967 19.0149 25.785 18.6477 26.3548L20.3289 27.4382ZM21.1717 26.3628C21.4818 26.074 21.7413 25.8722 21.9519 25.7406L20.8919 24.0446C20.5399 24.2645 20.1784 24.5549 19.8088 24.899L21.1717 26.3628ZM21.9364 25.7501C22.1769 25.6058 22.3276 25.5527 22.4013 25.5371L21.9893 23.58C21.6177 23.6583 21.2528 23.8278 20.9074 24.0351L21.9364 25.7501ZM22.4498 25.5257C22.5418 25.5015 22.6107 25.4866 22.6597 25.4781C22.7121 25.4691 22.7232 25.4707 22.7051 25.4707V23.4707C22.4546 23.4707 22.183 23.5278 21.9408 23.5915L22.4498 25.5257ZM22.7051 25.4707C22.8769 25.4707 22.9677 25.4961 23.0055 25.5114C23.0229 25.5185 23.0283 25.5231 23.0271 25.5221C23.0267 25.5219 23.0257 25.521 23.0245 25.5198C23.024 25.5193 23.0235 25.5187 23.0232 25.5183C23.0228 25.5179 23.0227 25.5177 23.0227 25.5178L24.6375 24.3377C24.1586 23.6825 23.4157 23.4707 22.7051 23.4707V25.4707ZM23.0227 25.5178C23.1056 25.6312 23.1641 25.7816 23.1641 26.0176H25.1641C25.1641 25.4098 24.9999 24.8337 24.6375 24.3377L23.0227 25.5178ZM23.1641 26.0176C23.1641 26.2419 23.1254 26.4984 23.0338 26.7916L24.9428 27.3881C25.0855 26.9313 25.1641 26.4729 25.1641 26.0176H23.1641ZM23.0338 26.7916C22.9393 27.094 22.8119 27.3818 22.651 27.6564L24.3764 28.6678C24.6138 28.2627 24.8029 27.8357 24.9428 27.3881L23.0338 26.7916ZM41.1797 34.209V33.209H41.0596L40.943 33.2374L41.1797 34.209ZM41.918 34.6309L41.0387 35.1071L41.0507 35.1293L41.0638 35.1508L41.918 34.6309ZM41.9004 36.3887L42.6075 37.0958L42.6261 37.0772L42.6437 37.0576L41.9004 36.3887ZM41.4785 36.7051L41.9491 37.5874L41.9714 37.5756L41.993 37.5626L41.4785 36.7051ZM40.793 37.0215L40.4083 36.0984L40.399 36.1023L40.793 37.0215ZM39.2461 38.041L39.964 38.7372L39.9692 38.7318L39.9743 38.7264L39.2461 38.041ZM39.7031 40.502L39.2559 41.3964L39.268 41.4024L39.2802 41.4081L39.7031 40.502ZM41.0566 40.9062L40.8686 41.8884L40.8804 41.8907L40.8922 41.8926L41.0566 40.9062ZM45.3809 40.7656L45.6307 41.7339L45.638 41.732L45.6453 41.73L45.3809 40.7656ZM47.2793 39.9395L46.7412 39.0965L46.733 39.1018L47.2793 39.9395ZM48.5801 38.6914L47.7543 38.1274L47.7495 38.1344L47.7449 38.1414L48.5801 38.6914ZM46.875 34.3848L46.3287 35.2224L46.3323 35.2247L46.875 34.3848ZM43.7988 32.2578L43.1839 33.0465L43.1904 33.0514L43.7988 32.2578ZM42.5156 31.2383L41.8549 31.9891L41.8648 31.9975L42.5156 31.2383ZM40.4062 24.6816L39.5179 24.2222L39.5118 24.2344L40.4062 24.6816ZM43.834 21.1133L44.3857 21.9473L44.3887 21.9453L43.834 21.1133ZM46.2422 19.7949L45.8467 18.8764L45.842 18.8785L46.2422 19.7949ZM48.7734 18.9512L49.0032 19.9245L49.0128 19.9221L48.7734 18.9512ZM52.7812 18.8281L52.5221 19.794L52.5279 19.7955L52.7812 18.8281ZM54.0645 19.4434L53.4523 20.2341L53.4604 20.2404L53.4686 20.2465L54.0645 19.4434ZM54.9082 20.498L53.9995 20.9155L54.0041 20.9256L54.009 20.9355L54.9082 20.498ZM52.166 26.8086L51.6091 25.978L51.6029 25.9822L51.5968 25.9864L52.166 26.8086ZM49.9512 26.8613L49.1703 27.486L49.1765 27.4938L49.183 27.5015L49.9512 26.8613ZM49.8809 24.8574L49.0261 24.3384L49.0192 24.3498L49.0126 24.3613L49.8809 24.8574ZM50.8301 24.0137L50.3707 23.1255L50.3626 23.1296L50.3546 23.134L50.8301 24.0137ZM51.7266 23.3105L50.9776 22.648L50.9758 22.6499L51.7266 23.3105ZM51.8496 21.9043L51.4267 22.8105L51.4377 22.8156L51.4488 22.8205L51.8496 21.9043ZM49.582 21.9746L49.782 22.9544L49.7895 22.9529L49.7969 22.9513L49.582 21.9746ZM47.8418 22.4668L47.5031 21.5259L47.497 21.5281L47.8418 22.4668ZM46.1543 23.2227L45.6847 22.3397L45.6768 22.344L46.1543 23.2227ZM44.7129 24.1719L44.0855 23.393L44.0749 23.4019L44.7129 24.1719ZM43.7109 25.2617L42.8789 24.707L42.8749 24.7131L43.7109 25.2617ZM43.957 27.7754L43.2118 28.4422L43.2213 28.4528L43.2311 28.4631L43.957 27.7754ZM44.7129 28.4785L44.0697 29.2442L44.0789 29.2519L44.0882 29.2594L44.7129 28.4785ZM45.7324 29.252L46.3269 28.4478L46.3206 28.4432L45.7324 29.252ZM49.8457 32.293L49.2512 33.0971L49.2543 33.0994L49.8457 32.293ZM51.252 33.4355L50.5772 34.1736L50.5882 34.1836L50.5994 34.1933L51.252 33.4355ZM52.3066 34.543L51.5066 35.143L51.5112 35.1491L51.5159 35.1551L52.3066 34.543ZM52.4473 39.6055L51.5694 39.1266L51.5672 39.1307L52.4473 39.6055ZM50.373 41.9961L49.7584 41.2073L49.7534 41.2112L50.373 41.9961ZM47.1387 43.7012L46.8146 42.7551L46.8119 42.7561L47.1387 43.7012ZM39.2988 44L39.5253 43.026L39.517 43.0241L39.2988 44ZM36.8379 43.0859L36.312 43.9366L36.3234 43.9434L36.8379 43.0859ZM35.4316 41.7324L34.5621 42.2265L34.5671 42.235L35.4316 41.7324ZM35.4316 38.3398L34.5372 37.8926L34.5337 37.8997L35.4316 38.3398ZM36.6973 36.6172L35.9978 35.9025L35.9902 35.9101L36.6973 36.6172ZM41.1797 35.209C41.2102 35.209 41.1785 35.2144 41.123 35.1827C41.097 35.1679 41.0753 35.15 41.0591 35.1329C41.0435 35.1164 41.0378 35.1055 41.0387 35.1071L42.7973 34.1546C42.6441 33.8718 42.4201 33.6204 42.1153 33.4462C41.8137 33.2739 41.489 33.209 41.1797 33.209V35.209ZM41.0638 35.1508C41.1219 35.2462 41.1641 35.3728 41.1641 35.5625H43.1641C43.1641 35.0491 43.0422 34.5545 42.7722 34.1109L41.0638 35.1508ZM41.1641 35.5625C41.1641 35.6756 41.1523 35.7353 41.1466 35.7564L43.0761 36.2826C43.1407 36.0459 43.1641 35.8009 43.1641 35.5625H41.1641ZM41.1466 35.7564C41.1525 35.7346 41.1598 35.7197 41.164 35.7124C41.1679 35.7055 41.1674 35.7083 41.1571 35.7197L42.6437 37.0576C42.8349 36.8451 42.993 36.5871 43.0761 36.2826L41.1466 35.7564ZM41.1933 35.6816C41.1626 35.7122 41.0938 35.7697 40.964 35.8476L41.993 37.5626C42.2148 37.4295 42.4272 37.276 42.6075 37.0958L41.1933 35.6816ZM41.0079 35.8227C40.8707 35.8959 40.6739 35.9878 40.4084 36.0984L41.1776 37.9446C41.4746 37.8208 41.7348 37.7017 41.9491 37.5874L41.0079 35.8227ZM40.399 36.1023C39.6533 36.422 39.0111 36.8316 38.5179 37.3557L39.9743 38.7264C40.2311 38.4535 40.6202 38.1835 41.1869 37.9406L40.399 36.1023ZM38.5282 37.3449C38.0442 37.844 37.6836 38.4669 37.6836 39.2012H39.6836C39.6836 39.162 39.698 39.0115 39.964 38.7372L38.5282 37.3449ZM37.6836 39.2012C37.6836 39.6868 37.8504 40.1253 38.1246 40.4975L39.7347 39.3111C39.6809 39.238 39.6836 39.2077 39.6836 39.2012H37.6836ZM38.1246 40.4975C38.4135 40.8896 38.8187 41.1778 39.2559 41.3964L40.1503 39.6075C39.8845 39.4746 39.774 39.3643 39.7347 39.3111L38.1246 40.4975ZM39.2802 41.4081C39.7317 41.6188 40.2693 41.7736 40.8686 41.8884L41.2447 39.9241C40.7424 39.8279 40.3777 39.7132 40.126 39.5958L39.2802 41.4081ZM40.8922 41.8926C41.525 41.9981 42.2568 42.0469 43.0781 42.0469V40.0469C42.3291 40.0469 41.7133 40.0019 41.221 39.9199L40.8922 41.8926ZM43.0781 42.0469C43.9645 42.0469 44.8165 41.944 45.6307 41.7339L45.131 39.7973C44.4921 39.9622 43.8089 40.0469 43.0781 40.0469V42.0469ZM45.6453 41.73C46.4552 41.508 47.1863 41.1939 47.8256 40.7771L46.733 39.1018C46.2941 39.3881 45.7597 39.6248 45.1164 39.8012L45.6453 41.73ZM47.8173 40.7824C48.4706 40.3654 49.0117 39.8543 49.4152 39.2414L47.7449 38.1414C47.5157 38.4895 47.1896 38.8104 46.7413 39.0965L47.8173 40.7824ZM49.4059 39.2554C49.8434 38.6148 50.0723 37.8979 50.0723 37.127H48.0723C48.0723 37.481 47.9731 37.8071 47.7543 38.1274L49.4059 39.2554ZM50.0723 37.127C50.0723 36.4161 49.7749 35.7674 49.3375 35.1989L47.7523 36.4183C48.0181 36.7638 48.0723 36.994 48.0723 37.127H50.0723ZM49.3375 35.1989C48.8883 34.6149 48.2268 34.0677 47.4177 33.5448L46.3323 35.2247C47.0466 35.6862 47.4984 36.0883 47.7523 36.4183L49.3375 35.1989ZM47.4213 33.5472C46.0808 32.6729 45.0802 31.9802 44.4073 31.4642L43.1904 33.0514C43.9237 33.6136 44.9739 34.3388 46.3287 35.2224L47.4213 33.5472ZM44.4137 31.4692C43.7153 30.9246 43.3088 30.6011 43.1664 30.479L41.8648 31.9975C42.0506 32.1567 42.4996 32.5129 43.184 33.0464L44.4137 31.4692ZM43.1763 30.4876C42.3455 29.7565 41.7665 29.0883 41.4019 28.4872L39.6919 29.5245C40.1945 30.3531 40.9279 31.1732 41.855 31.989L43.1763 30.4876ZM41.4019 28.4872C41.0552 27.9156 40.8965 27.3492 40.8965 26.7734H38.8965C38.8965 27.7445 39.1714 28.6664 39.6919 29.5245L41.4019 28.4872ZM40.8965 26.7734C40.8965 26.2236 41.0258 25.6787 41.3007 25.1289L39.5118 24.2344C39.107 25.044 38.8965 25.8936 38.8965 26.7734H40.8965ZM41.2945 25.1411C41.5962 24.5577 42.0039 23.9989 42.5266 23.4657L41.0984 22.0656C40.4493 22.7277 39.9194 23.4462 39.518 24.2222L41.2945 25.1411ZM42.5266 23.4657C43.059 22.9226 43.6774 22.4159 44.3857 21.9473L43.2822 20.2793C42.4671 20.8185 41.7379 21.4133 41.0984 22.0656L42.5266 23.4657ZM44.3887 21.9453C45.1144 21.4616 45.8655 21.0506 46.6423 20.7114L45.842 18.8785C44.9548 19.2658 44.1005 19.7338 43.2793 20.2812L44.3887 21.9453ZM46.6376 20.7134C47.431 20.3718 48.2194 20.1095 49.0032 19.9244L48.5436 17.9779C47.6399 18.1913 46.7408 18.4915 45.8467 18.8764L46.6376 20.7134ZM49.0128 19.9221C49.8019 19.7275 50.5296 19.6348 51.1992 19.6348V17.6348C50.3454 17.6348 49.4559 17.7529 48.534 17.9803L49.0128 19.9221ZM51.1992 19.6348C51.6991 19.6348 52.138 19.6909 52.5221 19.794L53.0404 17.8623C52.4636 17.7075 51.8478 17.6348 51.1992 17.6348V19.6348ZM52.5279 19.7955C52.9038 19.894 53.2064 20.0437 53.4523 20.2341L54.6766 18.6526C54.1959 18.2805 53.643 18.0201 53.0346 17.8608L52.5279 19.7955ZM53.4686 20.2465C53.6894 20.4103 53.8665 20.6261 53.9995 20.9155L55.8169 20.0805C55.5514 19.5028 55.1661 19.0155 54.6603 18.6403L53.4686 20.2465ZM54.009 20.9355C54.1385 21.2017 54.2246 21.5658 54.2246 22.0625H56.2246C56.2246 21.3404 56.0998 20.6616 55.8074 20.0606L54.009 20.9355ZM54.2246 22.0625C54.2246 22.7383 54.034 23.3926 53.6236 24.0417L55.3139 25.1106C55.9113 24.166 56.2246 23.1445 56.2246 22.0625H54.2246ZM53.6236 24.0417C53.2137 24.6899 52.5596 25.3407 51.6091 25.978L52.7229 27.6392C53.8349 26.8936 54.716 26.0562 55.3139 25.1106L53.6236 24.0417ZM51.5968 25.9864C51.237 26.2355 51.0125 26.2832 50.9004 26.2832V28.2832C51.5617 28.2832 52.181 28.0145 52.7352 27.6308L51.5968 25.9864ZM50.9004 26.2832C50.8201 26.2832 50.7829 26.2695 50.7704 26.2639C50.7603 26.2594 50.7442 26.2509 50.7194 26.2211L49.183 27.5015C49.6256 28.0327 50.2349 28.2832 50.9004 28.2832V26.2832ZM50.732 26.2366C50.6442 26.1268 50.5996 26.009 50.5996 25.8418H48.5996C48.5996 26.448 48.7894 27.0099 49.1703 27.486L50.732 26.2366ZM50.5996 25.8418C50.5996 25.7126 50.6347 25.5538 50.7491 25.3536L49.0126 24.3613C48.752 24.8173 48.5996 25.3147 48.5996 25.8418H50.5996ZM50.7356 25.3764C50.8201 25.2374 50.9847 25.0668 51.3056 24.8934L50.3546 23.134C49.8083 23.4293 49.3401 23.8212 49.0261 24.3384L50.7356 25.3764ZM51.2895 24.9019C51.742 24.6679 52.139 24.3555 52.4773 23.9712L50.9758 22.6499C50.7985 22.8515 50.5979 23.0079 50.3707 23.1255L51.2895 24.9019ZM52.4756 23.9731C52.8357 23.566 53.1309 23.0463 53.1309 22.4316H51.1309C51.1309 22.3794 51.1565 22.4458 50.9776 22.648L52.4756 23.9731ZM53.1309 22.4316C53.1309 22.1881 53.0894 21.9018 52.9429 21.6271C52.7871 21.3349 52.5441 21.1166 52.2504 20.9881L51.4488 22.8205C51.3426 22.774 51.2402 22.6846 51.1782 22.5682C51.1254 22.4693 51.1309 22.4057 51.1309 22.4316H53.1309ZM52.2725 20.9981C51.9283 20.8375 51.5573 20.7812 51.1992 20.7812V22.7812C51.3567 22.7812 51.4194 22.8071 51.4267 22.8105L52.2725 20.9981ZM51.1992 20.7812C50.6211 20.7812 50.0089 20.8568 49.3672 20.998L49.7969 22.9513C50.327 22.8346 50.793 22.7812 51.1992 22.7812V20.7812ZM49.3821 20.9948C48.7579 21.1222 48.1315 21.2997 47.5031 21.5259L48.1805 23.4077C48.724 23.212 49.2577 23.0614 49.782 22.9544L49.3821 20.9948ZM47.497 21.5281C46.8791 21.7551 46.2749 22.0258 45.6847 22.3398L46.6239 24.1055C47.1352 23.8336 47.6561 23.6004 48.1866 23.4055L47.497 21.5281ZM45.6768 22.344C45.0917 22.662 44.5599 23.011 44.0856 23.3931L45.3402 24.9506C45.7096 24.6531 46.1388 24.3692 46.6318 24.1013L45.6768 22.344ZM44.0749 23.4019C43.6006 23.7948 43.1978 24.2287 42.8789 24.707L44.543 25.8164C44.7397 25.5213 45.0048 25.2286 45.3509 24.9419L44.0749 23.4019ZM42.8749 24.7131C42.5431 25.2186 42.3418 25.7813 42.3418 26.3867H44.3418C44.3418 26.2421 44.3866 26.0548 44.547 25.8104L42.8749 24.7131ZM42.3418 26.3867C42.3418 26.7855 42.4245 27.1728 42.5963 27.5355L44.4037 26.6793C44.3646 26.5967 44.3418 26.5035 44.3418 26.3867H42.3418ZM42.5963 27.5355C42.7505 27.8611 42.9617 28.1626 43.2118 28.4422L44.7023 27.1086C44.554 26.9428 44.4605 26.7991 44.4037 26.6793L42.5963 27.5355ZM43.2311 28.4631C43.4735 28.7191 43.7545 28.9794 44.0697 29.2442L45.3561 27.7128C45.0854 27.4854 44.8624 27.277 44.683 27.0876L43.2311 28.4631ZM44.0882 29.2594C44.3958 29.5055 44.7483 29.7727 45.1443 30.0607L46.3206 28.4432C45.9431 28.1687 45.6159 27.9203 45.3376 27.6976L44.0882 29.2594ZM45.1379 30.0561L49.2512 33.0971L50.4402 31.4889L46.3269 28.4478L45.1379 30.0561ZM49.2543 33.0994C49.7576 33.4684 50.1977 33.8266 50.5772 34.1736L51.9267 32.6975C51.4859 32.2945 50.9885 31.891 50.4371 31.4866L49.2543 33.0994ZM50.5994 34.1933C50.9765 34.518 51.2759 34.8353 51.5066 35.143L53.1066 33.943C52.7749 33.5006 52.3712 33.0797 51.9045 32.6778L50.5994 34.1933ZM51.5159 35.1551C51.7488 35.4559 51.9168 35.7467 52.0306 36.0268L53.8835 35.274C53.6926 34.8041 53.427 34.3566 53.0974 33.9308L51.5159 35.1551ZM52.0306 36.0268C52.1323 36.2772 52.1855 36.5473 52.1855 36.8457H54.1855C54.1855 36.3004 54.0865 35.7736 53.8835 35.274L52.0306 36.0268ZM52.1855 36.8457C52.1855 37.6001 51.9893 38.3567 51.5694 39.1266L53.3252 40.0843C53.8896 39.0496 54.1855 37.9663 54.1855 36.8457H52.1855ZM51.5672 39.1307C51.1605 39.8844 50.5657 40.5782 49.7584 41.2073L50.9877 42.7849C51.9851 42.0077 52.7731 41.1078 53.3274 40.0803L51.5672 39.1307ZM49.7534 41.2112C48.9658 41.833 47.992 42.3518 46.8146 42.7551L47.4628 44.6472C48.8166 44.1834 49.9991 43.5654 50.9927 42.781L49.7534 41.2112ZM46.8119 42.7561C45.6781 43.1481 44.3961 43.3516 42.9551 43.3516V45.3516C44.5843 45.3516 46.0914 45.1214 47.4655 44.6463L46.8119 42.7561ZM42.9551 43.3516C41.575 43.3516 40.4368 43.238 39.5253 43.026L39.0723 44.974C40.1765 45.2308 41.4758 45.3516 42.9551 45.3516V43.3516ZM39.517 43.0241C38.5906 42.817 37.8789 42.5443 37.3524 42.2284L36.3234 43.9434C37.086 44.401 38.0149 44.7377 39.0807 44.9759L39.517 43.0241ZM37.3637 42.2353C36.8183 41.8982 36.4855 41.5554 36.2961 41.2298L34.5671 42.235C34.9638 42.9172 35.5684 43.4768 36.3121 43.9365L37.3637 42.2353ZM36.3011 41.2384C36.0889 40.8649 35.9922 40.495 35.9922 40.1152H33.9922C33.9922 40.8604 34.1885 41.5687 34.5622 42.2264L36.3011 41.2384ZM35.9922 40.1152C35.9922 39.7014 36.0946 39.2594 36.3296 38.78L34.5337 37.8997C34.1828 38.6156 33.9922 39.3572 33.9922 40.1152H35.9922ZM36.3261 38.7871C36.5773 38.2845 36.9324 37.7963 37.4044 37.3243L35.9902 35.9101C35.384 36.5162 34.8953 37.1764 34.5372 37.8926L36.3261 38.7871ZM37.3967 37.3319C37.8757 36.8631 38.4573 36.4345 39.1505 36.0506L38.1815 34.301C37.3513 34.7608 36.6204 35.2932 35.9978 35.9025L37.3967 37.3319ZM39.1505 36.0506C39.8283 35.6752 40.5819 35.3838 41.4164 35.1806L40.943 33.2374C39.9493 33.4794 39.0272 33.8326 38.1815 34.301L39.1505 36.0506Z" fill="#B58900"/>
</g>
<defs>
<clipPath id="clip0_2_3">
<rect width="64" height="64" fill="white"/>
</clipPath>
</defs>
</svg>
