<svg width="550" height="550" viewBox="0 0 550 550" fill="none" xmlns="http://www.w3.org/2000/svg">
<path d="M550 275C550 426.878 426.878 550 275 550C123.122 550 0 426.878 0 275C0 123.122 123.122 0 275 0C426.878 0 550 123.122 550 275Z" fill="#7796DE"/>
<circle cx="275" cy="275" r="256" fill="#CCD6EE"/>
<g filter="url(#filter0_d_605_2)">
<path d="M135.826 285.69L177.288 290.572C186.987 291.714 196.098 291.165 204.621 288.923C216.905 285.65 223.441 280.667 224.229 273.975L238.79 150.318C239.578 143.626 234.378 137.261 223.191 131.224C215.518 127.076 206.784 124.425 196.988 123.271L155.527 118.389L135.826 285.69ZM103.647 308.45L128.658 96.0503L144.935 90.5922L200.072 97.0848C214.717 98.8093 227.895 102.967 239.607 109.558C260.55 121.267 269.976 135.996 267.886 153.744L253.325 277.401C251.235 295.15 238.645 307.286 215.556 313.81C202.633 317.5 188.849 318.483 174.204 316.758L103.647 308.45Z" fill="black"/>
</g>
<g filter="url(#filter1_d_605_2)">
<path d="M292.708 369.844L321.891 360.006L323.346 360.177L319.234 395.092C318.446 401.784 323.646 408.149 334.833 414.186C342.603 418.346 351.337 420.997 361.036 422.139C370.734 423.281 379.846 422.732 388.369 420.49C400.653 417.217 407.189 412.234 407.977 405.542L412.962 363.208C413.761 356.419 408.562 350.054 397.363 344.114C389.593 339.954 380.859 337.303 371.16 336.161C358.843 334.711 348.009 331.517 338.659 326.581C321.368 317.269 313.476 306.211 314.983 293.409L319.934 251.366C321.464 238.37 331.709 229.448 350.668 224.6C360.909 221.971 372.188 221.382 384.505 222.833C396.822 224.283 407.656 227.476 417.006 232.412C434.298 241.725 442.189 252.782 440.682 265.584L438.489 284.206L409.306 294.044L407.852 293.873L410.986 267.25C411.557 262.401 408.931 258.404 403.106 255.26C397.378 252.127 390.15 250.047 381.422 249.019C372.693 247.991 365.131 248.33 358.735 250.035C352.436 251.751 349.001 255.034 348.43 259.884L344.679 291.744C344.108 296.593 346.686 300.584 352.414 303.717C358.238 306.861 365.515 308.947 374.244 309.975C388.889 311.699 402.067 315.857 413.779 322.447C434.721 334.157 444.147 348.885 442.057 366.634L437.072 408.968C434.994 426.62 422.404 438.756 399.303 445.377C386.381 449.067 372.597 450.05 357.952 448.325C343.307 446.601 330.129 442.443 318.417 435.853C297.475 424.143 288.048 409.415 290.138 391.666L292.708 369.844Z" fill="black"/>
</g>
<defs>
<filter id="filter0_d_605_2" x="103.647" y="88.7764" width="184.892" height="251.633" filterUnits="userSpaceOnUse" color-interpolation-filters="sRGB">
<feFlood flood-opacity="0" result="BackgroundImageFix"/>
<feColorMatrix in="SourceAlpha" type="matrix" values="0 0 0 0 0 0 0 0 0 0 0 0 0 0 0 0 0 0 127 0" result="hardAlpha"/>
<feOffset dx="10" dy="10"/>
<feGaussianBlur stdDeviation="2.5"/>
<feComposite in2="hardAlpha" operator="out"/>
<feColorMatrix type="matrix" values="0 0 0 0 0.334791 0 0 0 0 0.324531 0 0 0 0 0.8375 0 0 0 0.25 0"/>
<feBlend mode="normal" in2="BackgroundImageFix" result="effect1_dropShadow_605_2"/>
<feBlend mode="normal" in="SourceGraphic" in2="effect1_dropShadow_605_2" result="shape"/>
</filter>
<filter id="filter1_d_605_2" x="284.485" y="214.182" width="188.487" height="257.795" filterUnits="userSpaceOnUse" color-interpolation-filters="sRGB">
<feFlood flood-opacity="0" result="BackgroundImageFix"/>
<feColorMatrix in="SourceAlpha" type="matrix" values="0 0 0 0 0 0 0 0 0 0 0 0 0 0 0 0 0 0 127 0" result="hardAlpha"/>
<feOffset dx="10" dy="10"/>
<feGaussianBlur stdDeviation="2.5"/>
<feComposite in2="hardAlpha" operator="out"/>
<feColorMatrix type="matrix" values="0 0 0 0 0.333333 0 0 0 0 0.32549 0 0 0 0 0.839216 0 0 0 0.25 0"/>
<feBlend mode="normal" in2="BackgroundImageFix" result="effect1_dropShadow_605_2"/>
<feBlend mode="normal" in="SourceGraphic" in2="effect1_dropShadow_605_2" result="shape"/>
</filter>
</defs>
</svg>
